<?xml version="1.0" encoding="UTF-8" standalone="no"?>
<!DOCTYPE svg PUBLIC "-//W3C//DTD SVG 1.1//EN"
 "http://www.w3.org/Graphics/SVG/1.1/DTD/svg11.dtd">
<!-- Generated by graphviz version 5.0.0 (20220707.1540)
 -->
<!-- Title: dependencies Pages: 1 -->
<svg width="610pt" height="174pt"
 viewBox="0.00 0.00 610.00 173.80" xmlns="http://www.w3.org/2000/svg" xmlns:xlink="http://www.w3.org/1999/xlink">
<g id="graph0" class="graph" transform="scale(1 1) rotate(0) translate(4 169.8)">
<title>dependencies</title>
<polygon fill="white" stroke="transparent" points="-4,4 -4,-169.8 606,-169.8 606,4 -4,4"/>
<text text-anchor="middle" x="301" y="-8.2" font-family="sans-serif" font-size="14.00">dependencies</text>
<g id="clust1" class="cluster">
<title>cluster_AppModule</title>
<polygon fill="none" stroke="black" stroke-dasharray="1,5" points="8,-32.8 8,-157.8 594,-157.8 594,-32.8 8,-32.8"/>
</g>
<g id="clust3" class="cluster">
<title>cluster_AppModule_imports</title>
<polygon fill="none" stroke="black" points="16,-40.8 16,-92.8 586,-92.8 586,-40.8 16,-40.8"/>
</g>
<!-- AuthModule -->
<g id="node1" class="node">
<title>AuthModule</title>
<polygon fill="#8dd3c7" stroke="black" points="577.55,-84.8 574.55,-88.8 553.55,-88.8 550.55,-84.8 490.45,-84.8 490.45,-48.8 577.55,-48.8 577.55,-84.8"/>
<text text-anchor="middle" x="534" y="-62.6" font-family="Times,serif" font-size="14.00">AuthModule</text>
</g>
<!-- AppModule -->
<g id="node6" class="node">
<title>AppModule</title>
<polygon fill="#8dd3c7" stroke="black" points="314.66,-149.8 311.66,-153.8 290.66,-153.8 287.66,-149.8 231.34,-149.8 231.34,-113.8 314.66,-113.8 314.66,-149.8"/>
<text text-anchor="middle" x="273" y="-127.6" font-family="Times,serif" font-size="14.00">AppModule</text>
</g>
<!-- AuthModule&#45;&gt;AppModule -->
<g id="edge1" class="edge">
<title>AuthModule&#45;&gt;AppModule</title>
<path fill="none" stroke="black" d="M534,-85.08C534,-106.12 534,-137.8 534,-137.8 534,-137.8 324.93,-137.8 324.93,-137.8"/>
<polygon fill="black" stroke="black" points="324.93,-134.3 314.93,-137.8 324.93,-141.3 324.93,-134.3"/>
</g>
<!-- ConfigurationModule -->
<g id="node2" class="node">
<title>ConfigurationModule</title>
<polygon fill="#8dd3c7" stroke="black" points="472.1,-84.8 469.1,-88.8 448.1,-88.8 445.1,-84.8 333.9,-84.8 333.9,-48.8 472.1,-48.8 472.1,-84.8"/>
<text text-anchor="middle" x="403" y="-62.6" font-family="Times,serif" font-size="14.00">ConfigurationModule</text>
</g>
<!-- ConfigurationModule&#45;&gt;AppModule -->
<g id="edge2" class="edge">
<title>ConfigurationModule&#45;&gt;AppModule</title>
<path fill="none" stroke="black" d="M403,-84.82C403,-102.17 403,-125.8 403,-125.8 403,-125.8 324.85,-125.8 324.85,-125.8"/>
<polygon fill="black" stroke="black" points="324.85,-122.3 314.85,-125.8 324.85,-129.3 324.85,-122.3"/>
</g>
<!-- RoleModule -->
<g id="node3" class="node">
<title>RoleModule</title>
<polygon fill="#8dd3c7" stroke="black" points="315.99,-84.8 312.99,-88.8 291.99,-88.8 288.99,-84.8 230.01,-84.8 230.01,-48.8 315.99,-48.8 315.99,-84.8"/>
<text text-anchor="middle" x="273" y="-62.6" font-family="Times,serif" font-size="14.00">RoleModule</text>
</g>
<!-- RoleModule&#45;&gt;AppModule -->
<g id="edge3" class="edge">
<title>RoleModule&#45;&gt;AppModule</title>
<path fill="none" stroke="black" d="M273,-84.91C273,-84.91 273,-103.79 273,-103.79"/>
<polygon fill="black" stroke="black" points="269.5,-103.79 273,-113.79 276.5,-103.79 269.5,-103.79"/>
</g>
<!-- TestModule -->
<g id="node4" class="node">
<title>TestModule</title>
<polygon fill="#8dd3c7" stroke="black" points="211.66,-84.8 208.66,-88.8 187.66,-88.8 184.66,-84.8 128.34,-84.8 128.34,-48.8 211.66,-48.8 211.66,-84.8"/>
<text text-anchor="middle" x="170" y="-62.6" font-family="Times,serif" font-size="14.00">TestModule</text>
</g>
<!-- TestModule&#45;&gt;AppModule -->
<g id="edge4" class="edge">
<title>TestModule&#45;&gt;AppModule</title>
<path fill="none" stroke="black" d="M170,-84.82C170,-102.17 170,-125.8 170,-125.8 170,-125.8 221.11,-125.8 221.11,-125.8"/>
<polygon fill="black" stroke="black" points="221.11,-129.3 231.11,-125.8 221.11,-122.3 221.11,-129.3"/>
</g>
<!-- UserModule -->
<g id="node5" class="node">
<title>UserModule</title>
<polygon fill="#8dd3c7" stroke="black" points="109.99,-84.8 106.99,-88.8 85.99,-88.8 82.99,-84.8 24.01,-84.8 24.01,-48.8 109.99,-48.8 109.99,-84.8"/>
<text text-anchor="middle" x="67" y="-62.6" font-family="Times,serif" font-size="14.00">UserModule</text>
</g>
<!-- UserModule&#45;&gt;AppModule -->
<g id="edge5" class="edge">
<title>UserModule&#45;&gt;AppModule</title>
<path fill="none" stroke="black" d="M67,-85.08C67,-106.12 67,-137.8 67,-137.8 67,-137.8 221.31,-137.8 221.31,-137.8"/>
<polygon fill="black" stroke="black" points="221.31,-141.3 231.31,-137.8 221.31,-134.3 221.31,-141.3"/>
</g>
</g>
</svg>
